<svg width="16" height="16" viewBox="0 0 16 16" fill="none" xmlns="http://www.w3.org/2000/svg">
<path d="M13.9333 10.5037C13.0222 10.5037 12.1407 10.3556 11.3185 10.0889C11.0592 10 10.7704 10.0667 10.5704 10.2667L9.40739 11.726C7.31109 10.726 5.34813 8.83708 4.30368 6.66671L5.74813 5.43708C5.94813 5.22967 6.00739 4.94078 5.92591 4.68152C5.65183 3.8593 5.51109 2.97782 5.51109 2.06671C5.51109 1.66671 5.17776 1.33337 4.77776 1.33337H2.21479C1.81479 1.33337 1.33331 1.51115 1.33331 2.06671C1.33331 8.94819 7.05924 14.6667 13.9333 14.6667C14.4592 14.6667 14.6666 14.2 14.6666 13.7926V11.2371C14.6666 10.8371 14.3333 10.5037 13.9333 10.5037Z" fill="#DBDBDB"/>
</svg>
